<svg xmlns="http://www.w3.org/2000/svg" xmlns:xlink="http://www.w3.org/1999/xlink" version="1.1" x="0px" y="0px" viewBox="0 0 68 85" enable-background="new 0 0 68 68" xml:space="preserve"><g><path d="M30,33.7c-0.6,0-1.1,0.5-1.1,1.1c0,0.6,0.5,1.1,1.1,1.1c0.6,0,1.1-0.5,1.1-1.1C31.1,34.1,30.6,33.7,30,33.7z"/><path d="M30,21.4c0.6,0,1.1-0.5,1.1-1.1c0-0.6-0.5-1.1-1.1-1.1c-0.6,0-1.1,0.5-1.1,1.1C29,20.9,29.5,21.4,30,21.4z"/><path d="M31.3,29.7c-3.5-2-7.9-4.5-7.5-13.2C18,19.7,15.7,27,18.6,33.1c2.1,4.4,6.6,7.2,11.5,7.2c1.8,0,3.6-0.4,5.3-1.2   C37.3,33.1,34.7,31.6,31.3,29.7z M30,36.8c-1.1,0-2.1-0.9-2.1-2.1c0-1.1,0.9-2.1,2.1-2.1c1.1,0,2.1,0.9,2.1,2.1   C32.1,35.9,31.1,36.8,30,36.8z"/><path d="M30.1,12.1c-8.5,0-15.4,6.9-15.4,15.4c0,8.5,6.9,15.4,15.4,15.4s15.4-6.9,15.4-15.4C45.5,19.1,38.6,12.1,30.1,12.1z    M30,18.2c1.1,0,2.1,0.9,2.1,2.1c0,1.1-0.9,2.1-2.1,2.1c-1.1,0-2.1-0.9-2.1-2.1C28,19.2,28.9,18.2,30,18.2z M36.3,39.6   c0,0.1-0.1,0.2-0.3,0.3c-1.9,0.9-3.9,1.4-5.9,1.4c-5.3,0-10.1-3.1-12.4-7.8c-1.6-3.3-1.8-7-0.6-10.5c1.2-3.5,3.7-6.2,7-7.8   c0.2-0.1,0.4-0.1,0.5,0c0.1,0.1,0.2,0.3,0.2,0.5c-0.7,8.8,3.3,11.1,6.9,13.2C35.3,30.8,38.6,32.7,36.3,39.6z"/><path d="M63.6,41l-6.4-13.2c-0.7-1.5-1.2-3.1-1.6-4.8C53.4,11.2,42.9,2,30.2,2c-14.3,0-26,11.6-26,26c0,8.2,4,16,11,21.2   c5.3,4,4.7,16.1,4.7,16.3c0,0.1,0,0.3,0.1,0.4c0.1,0.1,0.2,0.1,0.4,0.1h23.7c0.3,0,0.5-0.2,0.5-0.5v-8.3c0-0.4,0.4-0.8,0.8-0.8h4.8   c3.3,0,5.9-2.7,5.9-5.9v-6.6c0-0.4,0.3-0.8,0.8-0.8h5.4c0.5,0,1-0.3,1.3-0.7C63.8,42,63.9,41.5,63.6,41z M30.1,44   c-9,0-16.4-7.4-16.4-16.4c0-9,7.4-16.4,16.4-16.4s16.4,7.4,16.4,16.4C46.5,36.6,39.1,44,30.1,44z"/></g><text x="0" y="83" fill="#000000" font-size="5px" font-weight="bold" font-family="'Helvetica Neue', Helvetica, Arial-Unicode, Arial, Sans-serif">Created by Vectors Point</text><text x="0" y="88" fill="#000000" font-size="5px" font-weight="bold" font-family="'Helvetica Neue', Helvetica, Arial-Unicode, Arial, Sans-serif">from the Noun Project</text></svg>