<svg xmlns="http://www.w3.org/2000/svg" xmlns:xlink="http://www.w3.org/1999/xlink" version="1.1" x="0px" y="0px" viewBox="0 0 100 125" enable-background="new 0 0 100 100" xml:space="preserve"><g><path d="M83.7,84c-0.02-0.03-0.19-0.22-0.22-0.24l-9.12-9c-1.06-1.05-1.89-2.34-2.41-3.79l-4.75-12.79   c-1.11-3.72-4.55-6.43-8.63-6.43H42.06c-3.83,0-7.1,2.4-8.4,5.77c-0.01,0.02-0.02,0.04-0.03,0.06l-4.97,13.4   c-0.53,1.45-1.35,2.75-2.41,3.79l-9.12,9c-0.03,0.03-0.2,0.22-0.22,0.24c-0.38,0.46-0.61,1.04-0.61,1.67   c0,1.47,1.19,2.66,2.66,2.66c0.55,0,1.06-0.17,1.48-0.45c0,0,0,0,0,0l0,0c0,0,0,0,0,0l2.15-1.58c-0.3,0.74-0.48,1.55-0.48,2.39v0   c0,3.48,2.84,6.32,6.32,6.32h5.06h28.52h0.02c1.78,0,2.96-1.08,3.01-2.45c0.07-1.91-2.13-2.46-3.08-2.62l-22.98-2.72   c-0.41-0.05-0.71-0.42-0.66-0.83c0.05-0.41,0.42-0.7,0.83-0.66l23.01,2.72c2.83,0.45,4.45,2,4.37,4.16   c-0.03,0.96-0.41,1.77-1.02,2.4h6.66c3.48,0,6.32-2.84,6.32-6.32v0c0-0.84-0.17-1.63-0.47-2.37l2.12,1.56c0,0,0,0,0,0l0,0   c0,0,0,0,0,0c0.42,0.29,0.93,0.45,1.48,0.45c1.47,0,2.66-1.19,2.66-2.66C84.31,85.03,84.08,84.46,83.7,84z M37.89,82.36h-9.45   c-0.18,0-0.36,0.01-0.54,0.03l2.71-1.99c1.74-1.27,3.14-3,4.08-5.03l3.2-6.93V82.36z M72.2,82.36h-9.54V68.3l3.26,7.07   c0.94,2.03,2.34,3.76,4.08,5.03l2.71,1.99C72.54,82.37,72.37,82.36,72.2,82.36z"/><circle cx="50.29" cy="25.68" r="1"/><circle cx="50.29" cy="21" r="1"/><circle cx="50.29" cy="16.33" r="1"/><circle cx="50.29" cy="11.65" r="1"/><circle cx="50.29" cy="6.98" r="1"/><circle cx="39.55" cy="29.17" r="1"/><circle cx="37.27" cy="25.09" r="1"/><circle cx="34.99" cy="21" r="1"/><circle cx="32.71" cy="16.92" r="1"/><circle cx="30.43" cy="12.84" r="1"/><circle cx="31.56" cy="35.44" r="1"/><circle cx="27.65" cy="32.89" r="1"/><circle cx="23.73" cy="30.33" r="1"/><circle cx="19.82" cy="27.77" r="1"/><circle cx="15.9" cy="25.22" r="1"/><circle cx="27.75" cy="45.93" r="1"/><circle cx="23.44" cy="44.13" r="1"/><circle cx="19.12" cy="42.34" r="1"/><circle cx="14.8" cy="40.55" r="1"/><circle cx="10.48" cy="38.75" r="1"/><circle cx="24.43" cy="58.26" r="1"/><circle cx="19.91" cy="57.06" r="1"/><circle cx="15.39" cy="55.85" r="1"/><circle cx="10.87" cy="54.65" r="1"/><circle cx="19.03" cy="70.52" r="1"/><circle cx="14.39" cy="69.95" r="1"/><circle cx="9.75" cy="69.38" r="1"/><circle cx="11.39" cy="82.98" r="1"/><circle cx="6.71" cy="82.98" r="1"/><circle cx="60.45" cy="29.23" r="1"/><circle cx="62.73" cy="25.15" r="1"/><circle cx="65.01" cy="21.07" r="1"/><circle cx="67.29" cy="16.98" r="1"/><circle cx="69.57" cy="12.9" r="1"/><circle cx="68.44" cy="35.5" r="1"/><circle cx="72.35" cy="32.95" r="1"/><circle cx="76.27" cy="30.39" r="1"/><circle cx="80.18" cy="27.83" r="1"/><circle cx="84.1" cy="25.28" r="1"/><circle cx="72.25" cy="45.99" r="1"/><circle cx="76.56" cy="44.19" r="1"/><circle cx="80.88" cy="42.4" r="1"/><circle cx="85.2" cy="40.61" r="1"/><circle cx="89.52" cy="38.81" r="1"/><circle cx="75.57" cy="58.32" r="1"/><circle cx="80.09" cy="57.12" r="1"/><circle cx="84.61" cy="55.91" r="1"/><circle cx="89.13" cy="54.71" r="1"/><circle cx="80.97" cy="70.58" r="1"/><circle cx="85.61" cy="70.01" r="1"/><circle cx="90.25" cy="69.44" r="1"/><circle cx="88.61" cy="83.04" r="1"/><circle cx="93.29" cy="83.04" r="1"/><ellipse transform="matrix(0.9871 -0.1602 0.1602 0.9871 -5.8126 8.581)" cx="50.32" cy="40.34" rx="9.42" ry="9.42"/></g><text x="0" y="115" fill="#000000" font-size="5px" font-weight="bold" font-family="'Helvetica Neue', Helvetica, Arial-Unicode, Arial, Sans-serif">Created by Miho Suzuki-Robinson</text><text x="0" y="120" fill="#000000" font-size="5px" font-weight="bold" font-family="'Helvetica Neue', Helvetica, Arial-Unicode, Arial, Sans-serif">from the Noun Project</text></svg>